#!OML:ASF H:\Terrain\Patient Classification 1\Walking\liu\liu.ASF
:FULLY-SPECIFIED
:DEGREES
344
root 0.025 15.8967 61.466 8.47373 1.0498 4.8984
lowerback -5.1769 -4.53452 -7.09251
upperback -0.89002 -5.70335 2.03071
thorax 2.87332 -2.93429 5.60971
lowerneck -23.9292 -3.07157 -11.9902
upperneck 23.4589 -3.06463 11.2556
head 12.0574 -0.987023 5.79291
rclavicle 1.63997e-014 3.97569e-015
rhumerus -50.8517 1.35001 -77.0311
rradius 25.9949
rwrist -8.39408
rhand -31.3648 -22.779
rfingers 7.12502
rthumb -4.63543 -52.7083
lclavicle 1.63997e-014 3.97569e-015
lhumerus -12.8491 -22.6059 84.3606
lradius 42.9086
lwrist 11.6658
lhand -17.4534 -29.8576
lfingers 7.12502
lthumb 8.79783 -0.0609847
rfemur -43.8731 4.86762 15.571
rtibia 33.9888
rfoot -8.97012 -1.5983
rtoes -17.8796
lfemur 21.2579 6.76792 -25.5016
ltibia 6.67916e-014
lfoot -3.94813 -7.94793
ltoes -0.986033
345
root 0.0251 15.8779 61.4918 8.20467 1.0498 4.57526
lowerback -4.98811 -4.46125 -6.68045
upperback -0.915313 -5.64356 2.10232
thorax 2.69987 -2.89437 5.47654
lowerneck -24.266 -3.11693 -11.9777
upperneck 23.9052 -3.058 11.0321
head 12.2922 -1.01058 5.73014
rclavicle 5.76972e-014 -3.18055e-015
rhumerus -51.0097 1.64751 -77.2892
rradius 25.7281
rwrist -8.84633
rhand -32.0543 -21.0165
rfingers 7.12502
rthumb -5.30116 -50.9302
lclavicle 5.76972e-014 -3.18055e-015
lhumerus -13.5099 -22.6697 84.8317
lradius 43.2166
lwrist 11.5187
lhand -17.4876 -30.0252
lfingers 7.12502
lthumb 8.76483 -0.227155
rfemur -43.4949 4.9189 16.1205
rtibia 35.2166
rfoot -7.3437 -1.5337
rtoes -15.396
lfemur 22.2493 7.0789 -24.825
ltibia 5.40694e-014
lfoot -2.38237 -7.55936
ltoes -2.70667
346
root 0.0251 15.8668 61.5175 7.75311 1.0498 4.02651
lowerback -4.67092 -4.37642 -5.98284
upperback -0.857003 -5.58666 2.16377
thorax 2.51462 -2.85568 5.17845
lowerneck -24.514 -3.0781 -11.8308
upperneck 24.2659 -3.02551 10.935
head 12.4739 -0.994663 5.69357
rclavicle 6.25178e-014 -9.54166e-015
rhumerus -51.0149 2.15267 -77.9137
rradius 25.1197
rwrist -8.85451
rhand -32.0445 -19.3643
rfingers 7.12502
rthumb -5.29174 -49.2782
lclavicle 6.25178e-014 -9.54166e-015
lhumerus -14.1934 -22.2677 85.1662
lradius 43.3892
lwrist 11.1246
lhand -17.1206 -30.3808
lfingers 7.12502
lthumb 9.11899 -0.597974
rfemur -42.8398 4.7391 17.146
rtibia 36.3473
rfoot -6.22382 -1.29455
rtoes -14.9277
lfemur 23.4784 7.49013 -23.9312
ltibia 3.18055e-014
lfoot -0.679888 -6.92479
ltoes -6.47961
347
root 0.0252 15.8624 61.5432 7.53972 1.0498 3.22522
lowerback -4.60548 -4.3039 -5.03574
upperback -0.910676 -5.54329 2.2973
thorax 2.3403 -2.82018 4.80038
lowerneck -24.3282 -2.93569 -11.3451
upperneck 24.2057 -2.9564 10.6851
head 12.3902 -0.953311 5.5149
rclavicle -2.24627e-014 -9.54166e-015
rhumerus -50.9937 1.69234 -77.6686
rradius 24.8589
rwrist -7.97737
rhand -31.7488 -18.8245
rfingers 7.12502
rthumb -5.00622 -48.7453
lclavicle -2.24627e-014 -9.54166e-015
lhumerus -15.0954 -21.9831 85.4772
lradius 43.6274
lwrist 11.0063
lhand -16.6259 -30.1644
lfingers 7.12502
lthumb 9.59628 -0.402936
rfemur -42.4955 4.63819 18.4396
rtibia 37.4511
rfoot -6.06933 -0.761884
rtoes -14.7169
lfemur 24.4011 7.93677 -22.7751
ltibia -8.90555e-014
lfoot 1.39149 -6.19528
ltoes -10.8715
348
root 0.0252 15.8592 61.569 7.60747 1.0498 2.56955
lowerback -4.86713 -4.23454 -4.30219
upperback -0.992903 -5.4794 2.43202
thorax 2.3383 -2.7807 4.52086
lowerneck -24.1999 -2.9962 -11.7292
upperneck 24.0175 -3.00082 11.0399
head 12.3104 -0.963573 5.70489
rclavicle 2.43511e-014 -1.59028e-015
rhumerus -50.7734 1.40028 -77.4759
rradius 25.0983
rwrist -8.13956
rhand -30.3657 -21.1327
rfingers 7.12502
rthumb -3.67065 -51.0809
lclavicle 2.43511e-014 -1.59028e-015
lhumerus -15.8836 -22.1329 85.8054
lradius 43.7856
lwrist 11.2001
lhand -15.8262 -29.3143
lfingers 7.12502
lthumb 10.3678 0.410066
rfemur -42.4357 4.67133 19.4718
rtibia 38.519
rfoot -6.227 -0.134249
rtoes -12.5829
lfemur 24.8756 8.38635 -21.7754
ltibia 2.54444e-014
lfoot 4.18399 -5.33115
ltoes -13.1654
349
root 0.0253 15.8477 61.5947 7.55763 1.0498 2.17025
lowerback -4.91719 -4.12171 -3.94894
upperback -1.05154 -5.34886 2.58962
thorax 2.27391 -2.71102 4.49773
lowerneck -23.8135 -3.10084 -12.2628
upperneck 23.6231 -3.04327 11.31
head 12.1013 -1.00107 5.87237
rclavicle 5.22307e-014 -1.59028e-014
rhumerus -50.3809 1.75334 -77.6999
rradius 24.8558
rwrist -8.89741
rhand -29.6174 -22.9867
rfingers 7.12502
rthumb -2.94798 -52.9461
lclavicle 5.22307e-014 -1.59028e-014
lhumerus -16.5063 -22.3073 86.3463
lradius 43.7104
lwrist 11.3623
lhand -15.4418 -28.9727
lfingers 7.12502
lthumb 10.7387 0.732792
rfemur -42.1773 4.53492 20.3049
rtibia 39.5307
rfoot -6.43575 0.581657
rtoes -11.0129
lfemur 21.443 9.12274 -20.9898
ltibia 7.63586
lfoot 3.63049 -5.75471
ltoes -14.3988
350
root 0.0253 15.8384 61.6204 7.47421 1.0498 1.91199
lowerback -4.823 -4.00972 -3.66676
upperback -1.16012 -5.21771 2.66315
thorax 2.07652 -2.63769 4.43911
lowerneck -23.4884 -3.21737 -12.6189
upperneck 23.3959 -3.09837 11.306
head 11.9646 -1.06365 5.90678
rclavicle 5.51627e-015 1.43125e-014
rhumerus -50.1704 1.86771 -77.8906
rradius 24.3102
rwrist -9.21011
rhand -30.5693 -21.408
rfingers 7.12502
rthumb -3.86727 -51.3527
lclavicle 5.51627e-015 1.43125e-014
lhumerus -17.2741 -22.2831 86.9236
lradius 43.6022
lwrist 11.4093
lhand -15.5209 -29.3224
lfingers 7.12502
lthumb 10.6623 0.387039
rfemur -41.8073 4.28838 20.9867
rtibia 40.5823
rfoot -7.00166 1.14162
rtoes -11.2553
lfemur 18.9874 9.76135 -20.3514
ltibia 13.4441
lfoot 3.50347 -5.97969
ltoes -16.1933
351
root 0.0254 15.8444 61.6462 7.43552 1.0498 1.66703
lowerback -4.82475 -3.99414 -3.40062
upperback -1.22046 -5.20992 2.68358
thorax 1.9927 -2.62937 4.31471
lowerneck -23.696 -3.14794 -12.4484
upperneck 23.6093 -3.00151 11.134
head 12.0671 -1.02497 5.83866
rclavicle 7.45443e-015 -1.82882e-014
rhumerus -50.0243 2.00401 -78.2665
rradius 24.2963
rwrist -9.07382
rhand -31.1324 -20.445
rfingers 7.12502
rthumb -4.41101 -50.3791
lclavicle 7.45443e-015 -1.82882e-014
lhumerus -18.0663 -22.0862 87.2648
lradius 43.5373
lwrist 11.4845
lhand -15.4454 -29.5038
lfingers 7.12502
lthumb 10.7351 0.201859
rfemur -41.4854 4.02422 21.5903
rtibia 41.7789
rfoot -7.73569 1.60689
rtoes -10.7944
lfemur 17.616 10.5136 -19.6702
ltibia 16.9993
lfoot 4.69468 -5.77878
ltoes -17.2406
352
root 0.0254 15.8539 61.6719 7.18979 1.0498 1.87497
lowerback -4.74351 -4.03164 -3.69777
upperback -1.18284 -5.24683 2.62824
thorax 2.01123 -2.65051 4.42443
lowerneck -24.1112 -2.93 -11.9057
upperneck 23.9429 -2.7649 10.7813
head 12.2284 -0.90953 5.66677
rclavicle 8.69186e-014 1.59028e-015
rhumerus -49.9139 1.91588 -78.2838
rradius 24.7555
rwrist -8.02214
rhand -29.4102 -20.2564
rfingers 7.12502
rthumb -2.74791 -50.2184
lclavicle 8.69186e-014 1.59028e-015
lhumerus -18.8607 -21.9008 87.6728
lradius 43.3783
lwrist 11.3723
lhand -15.5133 -29.3037
lfingers 7.12502
lthumb 10.6696 0.405416
rfemur -40.6845 3.36041 21.7569
rtibia 42.5987
rfoot -8.37922 2.3685
rtoes -11.1642
lfemur 16.1893 10.6514 -19.6717
ltibia 21.0684
lfoot 5.9307 -5.15959
ltoes -17.0335
353
root 0.0254 15.8623 61.6977 6.44903 1.0498 2.81223
lowerback -4.478 -4.11647 -4.68269
upperback -0.943971 -5.31691 2.36268
thorax 2.181 -2.69979 4.70205
lowerneck -24.2326 -2.89954 -11.6403
upperneck 24.0088 -2.71941 10.462
head 12.2622 -0.904215 5.50594
rclavicle 1.18277e-014 -7.95139e-015
rhumerus -49.739 1.80065 -78.1253
rradius 25.1977
rwrist -7.62105
rhand -27.2762 -18.8436
rfingers 7.12502
rthumb -0.686868 -48.8223
lclavicle 1.18277e-014 -7.95139e-015
lhumerus -19.7082 -21.6806 88.233
lradius 43.0819
lwrist 11.2144
lhand -15.5975 -29.1258
lfingers 7.12502
lthumb 10.5884 0.587481
rfemur -39.0113 2.04001 21.1367
rtibia 43.2176
rfoot -9.49644 3.64829
rtoes -12.3961
lfemur 15.4756 10.3664 -20.4711
ltibia 25.0925
lfoot 7.04647 -4.94819
ltoes -17.5982
354
root 0.0255 15.9065 61.7234 6.73889 1.0498 1.21133
lowerback -4.48736 -4.02381 -3.24768
upperback -1.13305 -5.26891 2.84229
thorax 1.90221 -2.65904 4.40938
lowerneck -23.9409 -3.05581 -11.8681
upperneck 23.6372 -2.90555 10.5946
head 12.0924 -0.992187 5.54412
rclavicle -8.07563e-014 1.11319e-014
rhumerus -49.2979 1.78084 -78.2378
rradius 25.365
rwrist -8.14896
rhand -27.4529 -20.008
rfingers 7.12502
rthumb -0.857543 -49.986
lclavicle -8.07563e-014 1.11319e-014
lhumerus -20.4351 -21.3933 88.6933
lradius 42.7159
lwrist 11.1337
lhand -15.3969 -29.0021
lfingers 7.12502
lthumb 10.7819 0.701141
rfemur -38.5728 2.35712 23.064
rtibia 43.2239
rfoot -10.4334 3.57273
rtoes -12.2736
lfemur 12.9501 10.3811 -18.515
ltibia 29.3083
lfoot 8.67506 -4.84871
ltoes -18.4522
355
root 0.0255 15.9407 61.7491 6.85538 1.0498 0.554511
lowerback -4.48315 -3.9133 -2.66565
upperback -1.21545 -5.15045 3.02824
thorax 1.76904 -2.59368 4.28981
lowerneck -23.5177 -3.22728 -12.4075
upperneck 23.2253 -3.10803 11.0683
head 11.8978 -1.07523 5.76567
rclavicle 1.59028e-014 -5.56597e-015
rhumerus -48.974 2.41149 -78.9219
rradius 25.583
rwrist -9.62359
rhand -28.849 -20.8625
rfingers 7.12502
rthumb -2.20592 -50.8308
lclavicle 1.59028e-014 -5.56597e-015
lhumerus -20.9961 -20.9802 89.2179
lradius 42.1775
lwrist 10.5822
lhand -15.2227 -28.8631
lfingers 7.12502
lthumb 10.9499 0.831389
rfemur -37.9329 2.31019 23.9946
rtibia 43.0228
rfoot -10.8975 3.66863
rtoes -11.8939
lfemur 10.638 10.2974 -17.6585
ltibia 33.6597
lfoot 10.0077 -3.92127
ltoes -16.6198
356
root 0.0256 15.9681 61.7749 6.83967 1.0498 0.16933
lowerback -4.4719 -3.84339 -2.37138
upperback -1.20935 -5.07348 3.18195
thorax 1.75037 -2.55421 4.29087
lowerneck -23.5221 -3.33063 -12.7152
upperneck 23.2112 -3.19397 11.2645
head 11.9155 -1.11672 5.88196
rclavicle 1.26228e-014 2.38542e-015
rhumerus -48.9462 3.95628 -80.1928
rradius 26.2368
rwrist -12.2473
rhand -29.4424 -18.545
rfingers 7.12502
rthumb -2.77899 -48.5066
lclavicle 1.26228e-014 2.38542e-015
lhumerus -21.4322 -20.4178 89.7888
lradius 41.447
lwrist 10.0013
lhand -15.1542 -28.8336
lfingers 7.12502
lthumb 11.016 0.857308
rfemur -36.9329 2.22256 24.583
rtibia 42.4482
rfoot -11.0908 3.72249
rtoes -11.7362
lfemur 8.35205 9.98676 -17.1947
ltibia 38.314
lfoot 10.8901 -2.16935
ltoes -11.3594
